<svg xmlns="http://www.w3.org/2000/svg" viewBox="0 0 1024 1024"><title>Deno-Round</title><g id="Deno"><path id="Deno-Round" d="M584.89,403.89A14.92,14.92,0,1,1,597.74,391,14.92,14.92,0,0,1,584.89,403.89ZM511.38,212C345.93,212.33,212,346.55,212,512a298.75,298.75,0,0,0,74.59,197.93c7.72,8.79,22.15,2.37,20.91-9.26-38-356.09,133.57-392.39,133.57-392.39h0c37.63-11.83,87-11.43,137.52,4,94.68,28.85,157.64,99.43,140.64,157.64-16.27,55.65-99.74,79.84-189.78,56.65a12,12,0,0,0-14.74,9C494.6,627.94,496.81,760.67,498,800.36A12,12,0,0,0,510,812h2c165.69,0,300-134.31,300-300C812,346.11,677.35,211.67,511.38,212ZM659.87,382.34A14.92,14.92,0,1,0,647,395.19,14.93,14.93,0,0,0,659.87,382.34Z"/></g></svg>