<svg xmlns="http://www.w3.org/2000/svg" viewBox="0 0 1024 1024"><defs><style>.cls-1{fill:#3c50c8;}</style></defs><title>Deno-Blue-1</title><g id="Deno_Blue" data-name="Deno Blue"><path id="Deno-Blue-1" class="cls-1" d="M584.89,403.89A14.92,14.92,0,1,1,597.74,391,14.92,14.92,0,0,1,584.89,403.89ZM511.37,212C345.92,212.34,212,346.55,212,512a299.2,299.2,0,0,0,99.74,223.35C258.49,346.91,441.07,308.29,441.07,308.29h0c37.63-11.83,87-11.43,137.52,4,94.68,28.85,157.64,99.43,140.64,157.64-16,54.86-97.39,79.15-186,57.6a16,16,0,0,0-19.48,12.35c-22.19,106.94-15.72,263.86-15.37,271.83,4.5.2,9,.32,13.58.32,165.69,0,300-134.31,300-300C812,346.11,677.35,211.66,511.37,212Zm148.5,170.34A14.92,14.92,0,1,0,647,395.19,14.93,14.93,0,0,0,659.87,382.34Z"/></g></svg>