<svg xmlns="http://www.w3.org/2000/svg" viewBox="0 0 1024 1024"><title>Deno-2</title><g id="Deno"><path id="Deno-2" d="M512,196c-174.52,0-316,141.48-316,316S337.48,828,512,828,828,686.52,828,512,686.52,196,512,196Zm0,601.54c-4.33,0-8.64-.11-12.93-.3-.33-7.59-6.49-156.94,14.64-258.73a15.23,15.23,0,0,1,18.53-11.75c84.31,20.5,161.74-2.62,177-54.84,16.19-55.4-43.74-122.57-133.86-150-48.1-14.66-95.08-15-130.89-3.78h0s-173.78,36.76-123.1,406.48A284.79,284.79,0,0,1,226.46,512c0-157.48,127.47-285.22,285-285.54,158-.32,286.13,127.64,286.13,285.54C797.54,669.7,669.7,797.54,512,797.54Zm53.45-404.36a14.2,14.2,0,1,1,15.92,15.92A14.23,14.23,0,0,1,565.45,393.18Zm59.14-8.28a14.2,14.2,0,1,1,15.92,15.92A14.22,14.22,0,0,1,624.59,384.9Z"/></g></svg>