<svg id="Deno_Red" data-name="Deno Red" xmlns="http://www.w3.org/2000/svg" viewBox="0 0 1024 1024"><defs><style>.cls-1{fill:#ff3c50;}</style></defs><title>Deno-Red-Round</title><path id="Deno-Red-Round" class="cls-1" d="M584.89,403.89A14.92,14.92,0,1,1,597.74,391,14.92,14.92,0,0,1,584.89,403.89ZM511.39,212C345.93,212.33,212,346.56,212,512a298.81,298.81,0,0,0,74.58,197.93c7.73,8.79,22.16,2.37,20.92-9.27-38-356.08,133.57-392.38,133.57-392.38h0c37.63-11.83,87-11.43,137.52,4,94.68,28.85,157.64,99.43,140.64,157.64-16.26,55.63-99.68,79.82-189.68,56.67a12.1,12.1,0,0,0-14.87,9.08C494.6,628,496.81,760.68,498,800.36A12,12,0,0,0,510,812h2c165.69,0,300-134.31,300-300C812,346.11,677.35,211.67,511.39,212ZM659.87,382.34A14.92,14.92,0,1,0,647,395.19,14.93,14.93,0,0,0,659.87,382.34Z"/></svg>