<svg id="Deno_Red" data-name="Deno Red" xmlns="http://www.w3.org/2000/svg" viewBox="0 0 1024 1024"><defs><style>.cls-1{fill:#ff3c50;}</style></defs><title>Deno Red Text</title><path id="Deno_Red_Text" data-name="Deno Red Text" class="cls-1" d="M560.59,368.43a9.94,9.94,0,1,1,8.57-8.57A9.95,9.95,0,0,1,560.59,368.43Zm-49-127.93c-110.3.22-199.59,89.7-199.59,200a199.19,199.19,0,0,0,49.72,132,8,8,0,0,0,13.95-6.18c-25.34-237.39,89-261.59,89-261.59h0c25.09-7.89,58-7.63,91.69,2.64,63.11,19.23,105.09,66.28,93.75,105.09-10.84,37.09-66.45,53.22-126.45,37.79a8.05,8.05,0,0,0-9.91,6c-13.39,61.59-11.92,150-11.11,176.47a8,8,0,0,0,8,7.76H512c110.46,0,200-89.54,200-200S622.24,240.28,511.59,240.5Zm99,113.56a9.94,9.94,0,1,0-8.57,8.57A9.95,9.95,0,0,0,610.58,354.06ZM388.3,727.45c.46,26.67-16.1,53.64-53.65,53.64H292.5V675.61h42.15C371.44,675.61,387.84,701.38,388.3,727.45ZM312.58,762h22.07c24.37,0,34-17.48,33.57-34.66-.46-16.42-10.27-32.84-33.57-32.84H312.58Zm174,19.14H406.23V675.61h80.32V694.9H426.31v24.26h58.1v18.53h-58.1V761.5h60.24Zm94.27-105.63h20.23V781.09H588.48v.15L532.08,710v71.12H511.85V675.61h16.4L580.82,741ZM731.5,729c-.31,27.28-17.33,54.55-55,54.55s-55.18-26.67-55.18-54.4,18.09-55.6,55.18-55.6C713.41,673.5,731.8,701.38,731.5,729Zm-90.28.45c.46,17.33,10,35.87,35.25,35.87s34.79-18.69,35.1-36c.31-17.78-9.81-37.67-35.1-37.67S640.76,711.62,641.22,729.4Z"/></svg>