<svg id="Deno_Red" data-name="Deno Red" xmlns="http://www.w3.org/2000/svg" viewBox="0 0 1024 1024"><defs><style>.cls-1{fill:#ff3c50;}</style></defs><title>Deno-Red-2</title><path id="Deno-Red-2" class="cls-1" d="M197.22,539.54C212.43,713.39,365.69,842,539.54,826.78S842,658.31,826.78,484.46,658.31,182,484.46,197.22,182,365.69,197.22,539.54Zm30.34-2.65C213.8,379.6,330.32,241,487.71,227.51c156.89-13.41,295,102.74,308.73,259.61a284.83,284.83,0,0,1-76,220c18.26-372.71-158-394.19-158-394.19h0c-36.65-8.1-83.42-3.63-130.06,15.16C344.92,363.35,291.08,435.49,312,489.27c19.75,50.69,98.9,67,181.09,39.19a15.26,15.26,0,0,1,19.49,10.09C542.52,638.11,549.4,787.42,549.74,795c-4.26.56-8.54,1-12.85,1.43C379.79,810.18,241.31,694,227.56,536.89ZM433.93,415.55A14.2,14.2,0,1,1,448.4,398.3,14.23,14.23,0,0,1,433.93,415.55Zm-59.63-3.1a14.19,14.19,0,1,1,14.47-17.25A14.21,14.21,0,0,1,374.3,412.45Z"/></svg>