<svg id="Deno_Red" data-name="Deno Red" xmlns="http://www.w3.org/2000/svg" viewBox="0 0 1024 1024"><defs><style>.cls-1{fill:#ff3c50;}</style></defs><title>Deno Red</title><path id="Deno_Red-2" data-name="Deno Red" class="cls-1" d="M583,404a14.92,14.92,0,1,1,14.91-14.92A14.91,14.91,0,0,1,583,404ZM512,212c-165.69,0-300,134.31-300,300a299.2,299.2,0,0,0,99.74,223.35C258.49,346.91,441.07,308.29,441.07,308.29h0c37.63-11.83,87-11.43,137.52,4,94.68,28.85,157.64,99.43,140.64,157.64s-107.18,81.9-201.65,53.33c-26.69,106.43-19.53,280-19.16,288.45,4.5.2,9,.32,13.58.32,165.69,0,300-134.31,300-300S677.69,212,512,212ZM660,380.4a14.91,14.91,0,1,0-14.91,14.92A14.92,14.92,0,0,0,660,380.4Z"/></svg>